<svg width="512" height="512" viewBox="0 0 512 512" fill="none" xmlns="http://www.w3.org/2000/svg">
<path d="M261.703 56.0161C298.121 55.5712 334.024 64.3736 365.831 81.5454C397.637 98.7173 424.237 123.658 442.976 153.881L400.088 178.786C385.847 155.818 365.634 136.864 341.464 123.815C317.293 110.766 290.01 104.076 262.335 104.415C234.659 104.753 207.559 112.106 183.736 125.742C159.914 139.377 140.202 158.819 126.565 182.126C112.929 205.435 105.845 231.795 106.019 258.58C106.194 285.364 113.621 311.636 127.56 334.776C141.5 357.915 161.464 377.114 185.463 390.458C209.461 403.801 216.655 409.226 244.333 409.226L279.333 456C242.911 455.999 192.127 449.985 160.547 432.426C128.966 414.867 102.695 389.603 84.3513 359.153C66.008 328.703 56.2336 294.131 56.0037 258.885C55.7738 223.639 65.0961 188.951 83.0408 158.279C100.985 127.607 126.926 102.024 158.274 84.0806C189.623 66.1372 225.284 56.4611 261.703 56.0161ZM151.813 222.303C151.866 222.3 157.453 221.912 160.979 222.303C162.628 222.486 163.239 222.596 165.146 223.11C168.652 224.054 172.151 226.063 175.198 227.749C178.027 229.313 179.345 230.609 181.864 232.613C192.767 241.285 196.98 248.735 205.193 259.368C212.898 269.342 216.983 275.104 224.357 285.312C234.322 299.107 239.63 307.029 249.353 320.986C259.482 335.523 264.387 344.206 275.183 358.281C279.622 364.066 281.625 367.746 286.848 372.874C289.607 375.581 291.273 376.995 294.346 379.36C297.462 381.757 299.151 383.262 302.679 385.036C308.08 387.75 311.636 388.433 317.677 389.089C325.142 389.9 329.53 389.151 336.841 387.467C339.146 386.936 340.468 386.686 342.674 385.846C345.793 384.658 347.282 383.441 350.172 381.792C367.75 371.762 391 350.172 391 350.172C391 350.172 345.152 438.255 290.18 452.329C288.883 452.661 288.18 452.982 286.848 453.139C285.556 453.292 284.764 453.495 283.515 453.139C281.954 452.694 280.182 450.707 280.182 450.707L121.873 241.531C121.862 241.512 120.781 239.661 121.039 238.288L121.05 238.232C121.299 236.902 121.339 236.696 121.873 235.856C122.724 234.518 125.176 232.635 125.205 232.613C125.205 232.613 128.219 230.586 130.205 229.37C131.81 228.386 132.689 227.792 134.371 226.937C136.567 225.82 137.848 225.255 140.203 224.505C143.357 223.501 151.813 222.303 151.813 222.303ZM392.39 241.632C405.34 223.735 430.664 219.272 448.952 231.665L453.484 234.736C455.313 235.975 455.746 238.43 454.451 240.22L360.366 370.253C347.416 388.151 322.093 392.614 303.804 380.222L299.271 377.151C297.443 375.912 297.01 373.456 298.305 371.667L392.39 241.632ZM431 173.742C444.807 173.742 456 184.574 456 197.935C456 211.297 444.807 222.128 431 222.128C417.193 222.128 406 211.297 406 197.935C406 184.573 417.193 173.742 431 173.742Z" fill="url(#paint0_linear_184_26)"/>
<defs>
<linearGradient id="paint0_linear_184_26" x1="102.666" y1="55.9995" x2="442.915" y2="458.633" gradientUnits="userSpaceOnUse">
<stop stop-color="white"/>
<stop offset="0.175481" stop-color="#39C888"/>
<stop offset="0.5" stop-color="#35C183"/>
</linearGradient>
</defs>
</svg>
